<mxfile host="app.diagrams.net" agent="Mozilla/5.0 (Windows NT 10.0; Win64; x64) AppleWebKit/537.36 (KHTML, like Gecko) Chrome/134.0.0.0 Safari/537.36" version="26.2.9">
  <diagram name="Page-1" id="gSY4zyBg7mmhAdelwtXS">
    <mxGraphModel dx="2278" dy="743" grid="0" gridSize="10" guides="1" tooltips="1" connect="1" arrows="1" fold="1" page="1" pageScale="1" pageWidth="850" pageHeight="1100" math="0" shadow="0">
      <root>
        <mxCell id="0" />
        <mxCell id="1" parent="0" />
        <mxCell id="y8Ktla3iqgzMcpCfFn2_-3" value="CPI" style="shape=mxgraph.sap.icon;labelPosition=center;verticalLabelPosition=bottom;align=center;verticalAlign=top;strokeWidth=1;strokeColor=light-dark(#074d92, #2f3336);fillColor=none;gradientColor=#FCFCFC;gradientDirection=west;aspect=fixed;SAPIcon=SAP_Integration_Suite_-_Cloud_Integration" vertex="1" parent="1">
          <mxGeometry x="25" y="178.5" width="52.5" height="52.5" as="geometry" />
        </mxCell>
        <mxCell id="y8Ktla3iqgzMcpCfFn2_-16" value="" style="shape=image;verticalLabelPosition=bottom;labelBackgroundColor=default;verticalAlign=top;aspect=fixed;imageAspect=0;image=https://sapbtp.in/wp-content/uploads/2023/02/SAP-BTP-IN-LOGO.png;" vertex="1" parent="1">
          <mxGeometry x="111" y="161.41" width="85.18" height="85.18" as="geometry" />
        </mxCell>
        <mxCell id="y8Ktla3iqgzMcpCfFn2_-42" style="edgeStyle=orthogonalEdgeStyle;rounded=0;orthogonalLoop=1;jettySize=auto;html=1;" edge="1" parent="1" source="y8Ktla3iqgzMcpCfFn2_-19">
          <mxGeometry relative="1" as="geometry">
            <mxPoint x="25" y="76" as="targetPoint" />
          </mxGeometry>
        </mxCell>
        <mxCell id="y8Ktla3iqgzMcpCfFn2_-19" value="&lt;div&gt;&lt;br&gt;&lt;/div&gt;" style="image;aspect=fixed;perimeter=ellipsePerimeter;html=1;align=center;shadow=0;dashed=0;spacingTop=3;image=img/lib/active_directory/database_cube.svg;" vertex="1" parent="1">
          <mxGeometry x="-227.5" y="51" width="45" height="50" as="geometry" />
        </mxCell>
        <mxCell id="y8Ktla3iqgzMcpCfFn2_-51" style="edgeStyle=orthogonalEdgeStyle;rounded=0;orthogonalLoop=1;jettySize=auto;html=1;exitX=0.5;exitY=0;exitDx=0;exitDy=0;exitPerimeter=0;entryX=0.5;entryY=1;entryDx=0;entryDy=0;" edge="1" parent="1" source="y8Ktla3iqgzMcpCfFn2_-20" target="y8Ktla3iqgzMcpCfFn2_-19">
          <mxGeometry relative="1" as="geometry" />
        </mxCell>
        <mxCell id="y8Ktla3iqgzMcpCfFn2_-20" value="&lt;div&gt;&lt;br&gt;&lt;/div&gt;&lt;div&gt;PSG&lt;/div&gt;&lt;div&gt;048&lt;/div&gt;" style="strokeWidth=2;html=1;shape=mxgraph.flowchart.database;whiteSpace=wrap;fillColor=none;" vertex="1" parent="1">
          <mxGeometry x="-235" y="171" width="60" height="60" as="geometry" />
        </mxCell>
        <mxCell id="y8Ktla3iqgzMcpCfFn2_-28" value="Cloud Connector" style="shape=image;verticalLabelPosition=bottom;verticalAlign=top;imageAspect=0;aspect=fixed;image=data:image/svg+xml,PHN2ZyB4bWxucz0iaHR0cDovL3d3dy53My5vcmcvMjAwMC9zdmciIGlkPSJjbG91ZGNvbm5lY3RvciIgdmlld0JveD0iNC4wMDAwMDE5MDczNDg2MzMgMy45OTk5OTkwNDYzMjU2ODM2IDQ4IDQ3Ljk5OTk5NjE4NTMwMjczNCIgd2lkdGg9IjQ4IiBoZWlnaHQ9IjQ3Ljk5OTk5NjE4NTMwMjczNCI+PGRlZnM+PHN0eWxlPi5jbHMtMXtmaWxsOiMwNzRkOTI7fS5jbHMtMntmaWxsOiM3ZjdmN2Y7fTwvc3R5bGU+PC9kZWZzPjx0aXRsZT5jbG91ZGNvbm5lY3Rvcl9jaXJjbGU8L3RpdGxlPjxwYXRoIGNsYXNzPSJjbHMtMSIgZD0iTTI4LDZBMjIsMjIsMCwxLDEsNiwyOCwyMi4wMjUsMjIuMDI1LDAsMCwxLDI4LDZtMC0yQTI0LDI0LDAsMSwwLDUyLDI4LDI0LDI0LDAsMCwwLDI4LDRaIi8+PHBhdGggY2xhc3M9ImNscy0yIiBkPSJNMjIuODE0LDE1Ljc1MUEzLjc2OCwzLjc2OCwwLDAsMSwyNi4yMzUsMTguMUwyNywyMC4wMjNsMS43NjctMS4wNjZhMi4yODcsMi4yODcsMCwwLDEsMS4xOTItLjM0NSwyLjMyNiwyLjMyNiwwLDAsMSwyLjI4MywxLjlsLjE2OC44OTIuODI2LjM3N2EzLjEyMSwzLjEyMSwwLDAsMSwxLjc1LDIuNzI0SDM2Ljc1YTQuODc2LDQuODc2LDAsMCwwLTIuNzkxLTQuMzE3LDQuMDQ5LDQuMDQ5LDAsMCwwLTYuMS0yLjcyNUE1LjUxNCw1LjUxNCwwLDAsMCwyMi43ODIsMTRjLTYuMDM4LjMyLTUuNCw2LjItNS40LDYuMmE0Ljg5Myw0Ljg5MywwLDAsMCwxLjUyNCw5LjU0N0gyMi43NXYtMS43NUgxOC45MDZhMy4xNDMsMy4xNDMsMCwwLDEtLjk3Ny02LjEzNGwxLjM0Ni0uNDQzLS4xNTMtMS40MDhBNC43MzMsNC43MzMsMCwwLDEsMjAsMTYuOTI0LDMuOCwzLjgsMCwwLDEsMjIuODE0LDE1Ljc1MVoiLz48cGF0aCBjbGFzcz0iY2xzLTIiIGQ9Ik00Miw0MC45MDYsNDEuMDE2LDQyLDM3LjU3LDM4LjYwOWwuMTEtLjEwOS0xLjAzOS45ODRhNC41NDMsNC41NDMsMCwwLDEtMy4xMTgsMS4zNjgsNC4xMTIsNC4xMTIsMCwwLDEtMy4wNjItMS4zNjhsLTEuNDIyLTEuNDIyLTIuNTE2LTIuNDA2QTQuNDc0LDQuNDc0LDAsMCwxLDI1LjEsMzIuNGE0LjMwNSw0LjMwNSwwLDAsMSwxLjQyMS0zLjJsLjY1Ny0uNzExLTQuNDMtNC41MzksMS4xNDgtMS4yLDQuNDMsNC41MzkuNzExLS43MTFhMy42LDMuNiwwLDAsMSwxLjQyMi0xLjAzOSw0LjUxNiw0LjUxNiwwLDAsMSwxLjctLjMyOCw0LjcyNSw0LjcyNSwwLDAsMSwzLjI4MiwxLjM2N0wzNy45LDI5LjJ2LjA1NUwzOS4zMiwzMC42OGE0LjE3Myw0LjE3MywwLDAsMSwwLDYuMTc5bC0uNjU2LjY1N1pNMjYuODUyLDMyLjM3NWEyLjc2OCwyLjc2OCwwLDAsMCwuODc1LDIuMDIzbDEuMjU3LDEuMjU4TDM1LjQzOCwyOS4ybC0xLjMxMy0xLjQyMmEyLjY4NCwyLjY4NCwwLDAsMC0xLjk2OS0uODIsMi4yNTIsMi4yNTIsMCwwLDAtMS44Ljc2NmwtMi41NzEsMi43MzRBMi4zOCwyLjM4LDAsMCwwLDI2Ljg1MiwzMi4zNzVaTTM4LjExNywzNS42YTIuMjg0LDIuMjg0LDAsMCwwLC44MjEtMS44LDIuNTM4LDIuNTM4LDAsMCwwLS43NjYtMS44NTlsLTEuNTMxLTEuNDc3LTYuMzQ0LDYuNCwxLjM2NywxLjM2OGguMDU1bC4wNTQuMDU0YTIuMjI3LDIuMjI3LDAsMCwwLDEuNzUuODIxLDIuNjE0LDIuNjE0LDAsMCwwLDEuODYtLjg3NVoiLz48L3N2Zz4=;" vertex="1" parent="1">
          <mxGeometry x="27.25" y="55" width="48" height="48" as="geometry" />
        </mxCell>
        <mxCell id="y8Ktla3iqgzMcpCfFn2_-37" value="&lt;font size=&quot;1&quot; color=&quot;#475f75&quot;&gt;&lt;b style=&quot;&quot;&gt;OData Service&lt;/b&gt;&lt;/font&gt;" style="rounded=1;whiteSpace=wrap;html=1;arcSize=50;strokeColor=#475f75;fillColor=default;strokeWidth=1.5;" vertex="1" parent="1">
          <mxGeometry x="-190" y="196" width="90" height="16" as="geometry" />
        </mxCell>
        <mxCell id="y8Ktla3iqgzMcpCfFn2_-38" value="&lt;p style=&quot;line-height: 114%;&quot;&gt;&lt;font color=&quot;#475f75&quot; size=&quot;1&quot;&gt;&lt;b style=&quot;&quot;&gt;HTTPS&lt;/b&gt;&lt;/font&gt;&lt;/p&gt;" style="rounded=1;whiteSpace=wrap;html=1;arcSize=50;strokeColor=#475f75;fillColor=#f5f6f7;fontColor=#266f3a;strokeWidth=1.5;" vertex="1" parent="1">
          <mxGeometry x="-60" y="196" width="41.99" height="16" as="geometry" />
        </mxCell>
        <mxCell id="y8Ktla3iqgzMcpCfFn2_-39" value="" style="endArrow=none;html=1;rounded=0;entryX=0;entryY=0.5;entryDx=0;entryDy=0;strokeColor=#475f75;strokeWidth=1.5;" edge="1" target="y8Ktla3iqgzMcpCfFn2_-38" parent="1">
          <mxGeometry width="50" height="50" relative="1" as="geometry">
            <mxPoint x="-100" y="204" as="sourcePoint" />
            <mxPoint x="-40" y="194" as="targetPoint" />
          </mxGeometry>
        </mxCell>
        <mxCell id="y8Ktla3iqgzMcpCfFn2_-40" value="" style="endArrow=blockThin;html=1;rounded=0;entryX=0;entryY=0.5;entryDx=0;entryDy=0;strokeColor=#475f75;strokeWidth=1.5;exitX=1.015;exitY=0.505;exitDx=0;exitDy=0;exitPerimeter=0;endFill=1;endSize=4;startSize=4;" edge="1" source="y8Ktla3iqgzMcpCfFn2_-38" parent="1">
          <mxGeometry width="50" height="50" relative="1" as="geometry">
            <mxPoint x="-15" y="203.95000000000005" as="sourcePoint" />
            <mxPoint x="25" y="203.95000000000005" as="targetPoint" />
          </mxGeometry>
        </mxCell>
        <mxCell id="y8Ktla3iqgzMcpCfFn2_-47" style="edgeStyle=orthogonalEdgeStyle;rounded=0;orthogonalLoop=1;jettySize=auto;html=1;exitX=1;exitY=0.5;exitDx=0;exitDy=0;exitPerimeter=0;entryX=0.107;entryY=0.513;entryDx=0;entryDy=0;entryPerimeter=0;" edge="1" parent="1" source="y8Ktla3iqgzMcpCfFn2_-3" target="y8Ktla3iqgzMcpCfFn2_-16">
          <mxGeometry relative="1" as="geometry" />
        </mxCell>
        <mxCell id="y8Ktla3iqgzMcpCfFn2_-49" value="&lt;font size=&quot;1&quot; face=&quot;arial&quot; style=&quot;&quot;&gt;&lt;span style=&quot;font-size: 12px;&quot;&gt;BW&lt;/span&gt;&lt;/font&gt;" style="text;html=1;align=center;verticalAlign=middle;resizable=0;points=[[0,0.5,0,0,0],[0.5,0,0,0,0],[0.5,1,0,0,0],[1,0.5,0,0,0]];autosize=1;strokeColor=none;fillColor=none;fontSize=12;fontColor=#1D2D3E;fontFamily=Helvetica;" vertex="1" parent="1">
          <mxGeometry x="-195" y="81" width="40" height="30" as="geometry" />
        </mxCell>
        <mxCell id="y8Ktla3iqgzMcpCfFn2_-55" value="&lt;font size=&quot;1&quot; face=&quot;arial&quot; style=&quot;&quot;&gt;&lt;span style=&quot;font-size: 12px;&quot;&gt;Firewall&lt;/span&gt;&lt;/font&gt;" style="text;html=1;align=center;verticalAlign=middle;resizable=0;points=[[0,0.5,0,0,0],[0.5,0,0,0,0],[0.5,1,0,0,0],[1,0.5,0,0,0]];autosize=1;strokeColor=none;fillColor=none;fontSize=12;fontColor=#1D2D3E;fontFamily=Helvetica;" vertex="1" parent="1">
          <mxGeometry x="-55" y="41" width="60" height="30" as="geometry" />
        </mxCell>
        <mxCell id="y8Ktla3iqgzMcpCfFn2_-56" value="" style="edgeStyle=segmentEdgeStyle;endArrow=classic;html=1;curved=0;rounded=0;endSize=8;startSize=8;" edge="1" parent="1" target="y8Ktla3iqgzMcpCfFn2_-16">
          <mxGeometry width="50" height="50" relative="1" as="geometry">
            <mxPoint x="75.25" y="76" as="sourcePoint" />
            <mxPoint x="160.25" y="147" as="targetPoint" />
            <Array as="points">
              <mxPoint x="154" y="76" />
            </Array>
          </mxGeometry>
        </mxCell>
      </root>
    </mxGraphModel>
  </diagram>
</mxfile>
